<svg width="105" height="105" viewBox="0 0 105 105" fill="none" xmlns="http://www.w3.org/2000/svg">
<path d="M96.2531 60.8107V70.8295C96.2531 86.7545 86.7594 96.2482 70.8344 96.2482H34.1719C23.0156 96.2482 14.9656 91.567 11.2031 83.2545L11.6844 82.9045L33.2094 68.467C36.7094 66.1045 41.6531 66.367 44.7594 69.0795L46.2469 70.3045C49.6594 73.2357 55.1719 73.2357 58.5844 70.3045L76.7844 54.6857C80.1969 51.7545 85.7094 51.7545 89.1219 54.6857L96.2531 60.8107Z" fill="white"/>
<path d="M91.7437 4.375H78.8813C73.325 4.375 70 7.7 70 13.2562V26.1187C70 31.675 73.325 35 78.8813 35H91.7437C97.3 35 100.625 31.675 100.625 26.1187V13.2562C100.625 7.7 97.3 4.375 91.7437 4.375ZM94.5438 20.475C92.925 25.6375 87.2812 28.4375 85.3125 28.4375C83.3438 28.4375 77.7437 25.725 76.0812 20.475C75.8187 19.6875 75.6875 18.8125 75.6875 17.9813C75.6875 15.1375 77.1312 12.2062 80.15 11.2437C81.9437 10.675 83.8687 10.9812 85.225 12.1187C86.625 11.025 88.55 10.675 90.3875 11.2437C94.4125 12.5125 95.6813 17.0187 94.5438 20.475Z" fill="white"/>
<path d="M91.7457 35H78.8832C73.327 35 70.002 31.675 70.002 26.1187V13.2562C70.002 11.5062 70.352 10.0187 70.9645 8.75C70.9207 8.75 70.877 8.75 70.8332 8.75H34.1707C18.2457 8.75 8.75195 18.2437 8.75195 34.1687V70.8313C8.75195 75.6 9.5832 79.7563 11.202 83.2563L11.6832 82.9063L33.2082 68.4687C36.7082 66.1062 41.652 66.3687 44.7582 69.0812L46.2457 70.3062C49.6582 73.2375 55.1707 73.2375 58.5832 70.3062L76.7832 54.6875C80.1957 51.7562 85.7082 51.7562 89.1207 54.6875L96.252 60.8125V34.1687C96.252 34.125 96.252 34.0813 96.252 34.0375C94.9832 34.65 93.4957 35 91.7457 35Z" fill="#A4A4A4"/>
<path d="M39.3715 45.4129C45.1222 45.4129 49.784 40.7511 49.784 35.0004C49.784 29.2497 45.1222 24.5879 39.3715 24.5879C33.6208 24.5879 28.959 29.2497 28.959 35.0004C28.959 40.7511 33.6208 45.4129 39.3715 45.4129Z" fill="white"/>
</svg>
